<?xml version="1.0" encoding="UTF-8" standalone="no"?>
<svg
   xmlns:osb="http://www.openswatchbook.org/uri/2009/osb"
   xmlns:dc="http://purl.org/dc/elements/1.1/"
   xmlns:cc="http://creativecommons.org/ns#"
   xmlns:rdf="http://www.w3.org/1999/02/22-rdf-syntax-ns#"
   xmlns:svg="http://www.w3.org/2000/svg"
   xmlns="http://www.w3.org/2000/svg"
   xmlns:xlink="http://www.w3.org/1999/xlink"
   xmlns:sodipodi="http://sodipodi.sourceforge.net/DTD/sodipodi-0.dtd"
   xmlns:inkscape="http://www.inkscape.org/namespaces/inkscape"
   width="90"
   height="90"
   viewBox="0 0 23.8125 23.812502"
   version="1.1"
   id="svg8"
   sodipodi:docname="idena-logo.svg"
   inkscape:version="1.0 (4035a4fb49, 2020-05-01)">
  <defs
     id="defs2">
    <linearGradient
       id="linearGradient1012"
       inkscape:collect="always">
      <stop
         id="stop1008"
         offset="0"
         style="stop-color:#000000;stop-opacity:1;" />
      <stop
         id="stop1010"
         offset="1"
         style="stop-color:#000000;stop-opacity:0;" />
    </linearGradient>
    <linearGradient
       id="linearGradient1004"
       inkscape:collect="always">
      <stop
         id="stop1000"
         offset="0"
         style="stop-color:#ffffff;stop-opacity:1;" />
      <stop
         id="stop1002"
         offset="1"
         style="stop-color:#ffffff;stop-opacity:0;" />
    </linearGradient>
    <linearGradient
       id="linearGradient6563"
       osb:paint="solid">
      <stop
         style="stop-color:#ff0000;stop-opacity:1;"
         offset="0"
         id="stop6561" />
    </linearGradient>
    <linearGradient
       id="linearGradient5638"
       osb:paint="gradient">
      <stop
         style="stop-color:#ffffff;stop-opacity:1;"
         offset="0"
         id="stop5634" />
      <stop
         style="stop-color:#ffffff;stop-opacity:0;"
         offset="1"
         id="stop5636" />
    </linearGradient>
    <linearGradient
       inkscape:collect="always"
       id="linearGradient5615-6">
      <stop
         style="stop-color:#ffffff;stop-opacity:1;"
         offset="0"
         id="stop5611" />
      <stop
         style="stop-color:#ffffff;stop-opacity:0;"
         offset="1"
         id="stop5613" />
    </linearGradient>
    <style
       id="style803">.cls-1,.cls-2,.cls-3{fill:none;stroke:#000;stroke-linecap:round;stroke-linejoin:round;}.cls-1{stroke-width:2.71px;}.cls-2{stroke-width:2.71px;}.cls-3{stroke-width:2.42px;}</style>
    <radialGradient
       inkscape:collect="always"
       xlink:href="#linearGradient5615-6"
       id="radialGradient5617"
       cx="11.525999"
       cy="5.0447121"
       fx="11.525999"
       fy="5.0447121"
       r="4.898182"
       gradientTransform="matrix(1,0,0,0.8499461,0,0.75697872)"
       gradientUnits="userSpaceOnUse" />
    <radialGradient
       gradientUnits="userSpaceOnUse"
       gradientTransform="matrix(3.1583649,0,0,3.5838924,-26.78108,-20.16007)"
       r="3.6507642"
       fy="8.5461044"
       fx="12.241037"
       cy="8.5461044"
       cx="12.241037"
       id="radialGradient1006"
       xlink:href="#linearGradient1004"
       inkscape:collect="always" />
    <radialGradient
       gradientUnits="userSpaceOnUse"
       gradientTransform="matrix(3.1583649,0,0,3.5838924,-26.78108,-20.16007)"
       r="3.6507642"
       fy="8.5461044"
       fx="12.241037"
       cy="8.5461044"
       cx="12.241037"
       id="radialGradient1014"
       xlink:href="#linearGradient1012"
       inkscape:collect="always" />
    <filter
       height="1.1940182"
       y="-0.097009115"
       width="1.1951052"
       x="-0.097552588"
       id="filter1028"
       style="color-interpolation-filters:sRGB"
       inkscape:collect="always">
      <feGaussianBlur
         id="feGaussianBlur1030"
         stdDeviation="0.96958346"
         inkscape:collect="always" />
    </filter>
  </defs>
  <sodipodi:namedview
     id="base"
     pagecolor="#ffffff"
     bordercolor="#666666"
     borderopacity="1.0"
     inkscape:pageopacity="0.0"
     inkscape:pageshadow="2"
     inkscape:zoom="3.959798"
     inkscape:cx="38.322563"
     inkscape:cy="44.877313"
     inkscape:document-units="mm"
     inkscape:current-layer="layer3"
     inkscape:document-rotation="0"
     showgrid="false"
     units="px"
     inkscape:window-width="1366"
     inkscape:window-height="705"
     inkscape:window-x="-8"
     inkscape:window-y="-8"
     inkscape:window-maximized="1" />
  <metadata
     id="metadata5">
    <rdf:RDF>
      <cc:Work
         rdf:about="">
        <dc:format>image/svg+xml</dc:format>
        <dc:type
           rdf:resource="http://purl.org/dc/dcmitype/StillImage" />
        <dc:title />
      </cc:Work>
    </rdf:RDF>
  </metadata>
  <g
     sodipodi:insensitive="true"
     inkscape:groupmode="layer"
     id="layer6"
     inkscape:label="Layer 3"
     style="display:inline;opacity:1;mix-blend-mode:normal;filter:url(#filter1028)">
    <rect
       style="display:inline;opacity:1;fill:#578fff;fill-opacity:1;fill-rule:evenodd;stroke:none;stroke-width:0.212202;stroke-miterlimit:4;stroke-dasharray:none;stroke-opacity:1"
       id="rect5692"
       width="23.753778"
       height="23.987648"
       x="0.06681738"
       y="-4.4409307e-16"
       transform="matrix(1,0,0.00416987,0.99999131,0,0)" />
  </g>
  <g
     inkscape:groupmode="layer"
     id="layer3"
     inkscape:label="Layer 2"
     style="display:inline;opacity:1;mix-blend-mode:normal">
    <ellipse
       style="mix-blend-mode:normal;fill:none;fill-opacity:1;stroke:#ffffff;stroke-width:1.977;stroke-linecap:round;stroke-linejoin:miter;stroke-miterlimit:4;stroke-dasharray:none;stroke-opacity:0;paint-order:normal"
       id="path4742"
       cx="11.292137"
       cy="8.6528511"
       rx="6.7485552"
       ry="5.9801555" />
    <rect
       style="fill:#0000ff;fill-opacity:0;fill-rule:evenodd;stroke-width:0.264583"
       id="rect4874"
       width="23.853804"
       height="23.98744"
       x="0.06681738"
       y="0" />
    <rect
       y="-2.6156921"
       x="0.35014316"
       height="26.167891"
       width="23.060888"
       id="rect982"
       style="fill:url(#radialGradient1006);fill-opacity:1;fill-rule:evenodd;stroke:url(#radialGradient1014);stroke-width:1.03639" />
  </g>
  <g
     inkscape:label="Layer 1"
     inkscape:groupmode="layer"
     id="layer1"
     style="display:inline;opacity:1"
     sodipodi:insensitive="true">
    <g
       id="g1067"
       transform="matrix(0.13036116,0,0,0.12408395,-0.02008254,0.13755551)">
      <path
         id="path809"
         d="M 12.51,1.36 V 15.8 a 7.89,7.89 0 0 0 1.84,5.2 l 5,5.82"
         class="cls-1" />
      <path
         id="path811"
         d="M 27.13,17.55 23.32,13.3 A 4.62,4.62 0 0 1 22.18,10.21 V 1.36"
         class="cls-1" />
      <path
         id="path813"
         d="m 13.39,165 8.07,-9.34 -15.22,-17.57 -2.64,3.06 a 9.9,9.9 0 0 0 0,12.55 z"
         class="cls-1" />
      <path
         id="path815"
         d="m 21.46,155.7 -8.07,-9.33 15.22,-17.61 2.64,3.05 a 9.89,9.89 0 0 1 0,12.56 z"
         class="cls-1" />
      <path
         id="path817"
         d="M 13.39,146.37 21.46,137 6.24,119.42 3.6,122.48 a 9.9,9.9 0 0 0 0,12.52 z"
         class="cls-1" />
      <path
         id="path819"
         d="m 21.46,137 -8.07,-9.33 15.22,-17.61 2.64,3.06 a 9.88,9.88 0 0 1 0,12.55 z"
         class="cls-1" />
      <path
         id="path821"
         d="m 13.39,127.7 8.07,-9.33 -15.22,-17.62 -2.64,3.06 a 9.91,9.91 0 0 0 0,12.56 z"
         class="cls-1" />
      <path
         id="path823"
         d="M 21.46,118.37 13.39,109 28.61,91.42 l 2.64,3.06 a 9.88,9.88 0 0 1 0,12.55 z"
         class="cls-1" />
      <path
         id="path825"
         d="m 13.39,109 8.07,-9.33 -15.22,-17.58 -2.64,3 a 9.91,9.91 0 0 0 0,12.56 z"
         class="cls-1" />
      <path
         id="path827"
         d="m 21.46,99.7 -8.07,-9.34 15.22,-17.61 2.64,3.06 a 9.88,9.88 0 0 1 0,12.55 z"
         class="cls-1" />
      <path
         id="path829"
         d="M 13.39,90.36 21.46,81 6.24,63.42 3.6,66.48 A 9.9,9.9 0 0 0 3.6,79 Z"
         class="cls-1" />
      <path
         id="path831"
         d="m 21.46,81 -8.07,-9.3 15.22,-17.62 2.64,3.06 a 9.89,9.89 0 0 1 0,12.56 z"
         class="cls-1" />
      <path
         id="path833"
         d="M 13.39,71.7 21.46,62.36 6.24,44.75 3.6,47.81 a 9.9,9.9 0 0 0 0,12.55 z"
         class="cls-1" />
      <path
         id="path835"
         d="M 21.46,62.36 13.39,53 28.61,35.42 l 2.64,3 a 9.89,9.89 0 0 1 0,12.56 z"
         class="cls-1" />
      <path
         id="path837"
         d="M 13.39,53 21.46,43.66 6.24,26.08 3.6,29.14 a 9.9,9.9 0 0 0 0,12.55 z"
         class="cls-1" />
      <path
         id="path839"
         d="M 21.46,25 13.39,34.33 6.13,26 A 14.08,14.08 0 0 1 2.84,16.73 V 1.36"
         class="cls-1" />
      <path
         id="path841"
         d="m 21.46,43.69 -8.07,-9.33 15.22,-17.61 2.64,3.06 a 9.88,9.88 0 0 1 0,12.55 z"
         class="cls-1" />
      <path
         id="path843"
         d="M 28.72,16.62 A 14.07,14.07 0 0 0 32,7.41 v -6"
         class="cls-1" />
      <path
         id="path845"
         d="m 22.34,188.7 v -14.44 a 7.89,7.89 0 0 0 -1.84,-5.15 l -5,-5.82"
         class="cls-1" />
      <path
         id="path847"
         d="m 7.73,172.51 3.81,4.25 a 4.66,4.66 0 0 1 1.13,3.09 v 8.85"
         class="cls-1" />
      <path
         id="path849"
         d="m 13.39,165 8.07,-9.34 7.26,8.41 a 14.14,14.14 0 0 1 3.3,9.27 v 15.36"
         class="cls-1" />
      <path
         id="path851"
         d="m 2.84,188.7 v -6 a 14.05,14.05 0 0 1 3.29,-9.2 l 7.26,-8.5"
         class="cls-1" />
      <path
         id="path853"
         d="m 13.51,164.9 15.21,-17.61 0.12,0.13 A 14.55,14.55 0 0 1 29.47,165"
         class="cls-1" />
      <path
         id="path855"
         d="m 13,164.62 -6.77,-7.83 -0.11,0.13 a 14.57,14.57 0 0 0 -0.84,17.32"
         class="cls-1" />
      <path
         id="path857"
         d="M 160.23,1.36 V 15.8 a 7.9,7.9 0 0 0 1.85,5.2 l 5,5.82"
         class="cls-1" />
      <path
         id="path859"
         d="M 174.85,17.55 171,13.3 a 4.62,4.62 0 0 1 -1.14,-3.09 V 1.36"
         class="cls-1" />
      <path
         id="path861"
         d="m 161.12,165 8.06,-9.34 -15.18,-17.57 -2.64,3.06 a 9.88,9.88 0 0 0 0,12.55 z"
         class="cls-1" />
      <path
         id="path863"
         d="m 169.18,155.7 -8.06,-9.33 15.21,-17.61 2.64,3.05 a 9.89,9.89 0 0 1 0,12.56 z"
         class="cls-1" />
      <path
         id="path865"
         d="m 161.12,146.37 8.06,-9.34 -15.18,-17.61 -2.64,3.06 a 9.88,9.88 0 0 0 0,12.55 z"
         class="cls-1" />
      <path
         id="path867"
         d="m 169.18,137 -8.06,-9.33 15.21,-17.61 2.64,3.06 a 9.88,9.88 0 0 1 0,12.55 z"
         class="cls-1" />
      <path
         id="path869"
         d="m 161.12,127.7 8.06,-9.33 -15.18,-17.62 -2.64,3.06 a 9.89,9.89 0 0 0 0,12.56 z"
         class="cls-1" />
      <path
         id="path871"
         d="M 169.18,118.37 161.12,109 176.33,91.39 179,94.48 a 9.88,9.88 0 0 1 0,12.52 z"
         class="cls-1" />
      <path
         id="path873"
         d="m 161.12,109 8.06,-9.33 -15.18,-17.58 -2.64,3 a 9.89,9.89 0 0 0 0,12.56 z"
         class="cls-1" />
      <path
         id="path875"
         d="m 169.18,99.7 -8.06,-9.34 15.21,-17.61 2.67,3.06 a 9.88,9.88 0 0 1 0,12.55 z"
         class="cls-1" />
      <path
         id="path877"
         d="M 161.12,90.36 169.18,81 154,63.42 l -2.64,3.06 a 9.88,9.88 0 0 0 0,12.55 z"
         class="cls-1" />
      <path
         id="path879"
         d="m 169.18,81 -8.06,-9.33 15.21,-17.62 2.67,3.09 a 9.89,9.89 0 0 1 0,12.56 z"
         class="cls-1" />
      <path
         id="path881"
         d="m 161.12,71.7 8.06,-9.34 -15.18,-17.61 -2.64,3.06 a 9.88,9.88 0 0 0 0,12.55 z"
         class="cls-1" />
      <path
         id="path883"
         d="m 169.18,62.36 -8.06,-9.36 15.21,-17.61 2.64,3 A 9.89,9.89 0 0 1 179,51 Z"
         class="cls-1" />
      <path
         id="path885"
         d="m 161.12,53 8.06,-9.34 -15.18,-17.58 -2.64,3.06 a 9.88,9.88 0 0 0 0,12.55 z"
         class="cls-1" />
      <path
         id="path887"
         d="m 169.18,25 -8.06,9.33 -7.27,-8.33 a 14.08,14.08 0 0 1 -3.29,-9.27 V 1.36"
         class="cls-1" />
      <path
         id="path889"
         d="m 169.18,43.69 -8.06,-9.33 15.21,-17.61 2.67,3.06 a 9.88,9.88 0 0 1 0,12.55 z"
         class="cls-1" />
      <path
         id="path891"
         d="m 176.45,16.62 a 14.11,14.11 0 0 0 3.29,-9.21 v -6"
         class="cls-1" />
      <path
         id="path893"
         d="m 170.07,188.7 v -14.44 a 7.9,7.9 0 0 0 -1.85,-5.15 l -5,-5.82"
         class="cls-1" />
      <path
         id="path895"
         d="m 155.45,172.51 3.81,4.25 a 4.62,4.62 0 0 1 1.14,3.09 v 8.85"
         class="cls-1" />
      <path
         id="path897"
         d="m 161.12,165 8.06,-9.34 7.27,8.41 a 14.13,14.13 0 0 1 3.29,9.27 v 15.36"
         class="cls-1" />
      <path
         id="path899"
         d="m 150.56,188.7 v -6 a 14.1,14.1 0 0 1 3.29,-9.2 l 7.27,-8.41"
         class="cls-1" />
      <path
         id="path901"
         d="m 161.23,164.9 15.22,-17.61 0.11,0.13 A 14.56,14.56 0 0 1 177.2,165"
         class="cls-1" />
      <path
         id="path903"
         d="m 160.73,164.62 -6.73,-7.83 -0.12,0.13 a 14.57,14.57 0 0 0 -0.84,17.32"
         class="cls-1" />
      <polyline
         id="polyline905"
         points="41.85 188.71 41.85 25.12 47.07 25.12"
         class="cls-1" />
      <polyline
         id="polyline907"
         points="135.05 25.12 140.89 25.12 140.89 188.71"
         class="cls-2" />
      <polyline
         id="polyline909"
         points="83.67 169.92 90.67 169.92 97.66 169.92"
         class="cls-1" />
      <polyline
         id="polyline911"
         points="86.52 154.08 94.25 154.08 96.23 154.08"
         class="cls-1" />
      <path
         id="path913"
         d="m 96.88,146.94 c -1.52,-0.63 -3.2,0.22 -3.93,0.64 a 3.93,3.93 0 0 1 -1.58,0.41 3.85,3.85 0 0 1 -1.57,-0.41 c -0.74,-0.42 -2.42,-1.27 -3.94,-0.64 a 120.32,120.32 0 0 0 -11.71,5.62 19.94,19.94 0 0 0 34.44,0 120.32,120.32 0 0 0 -11.71,-5.62 z"
         class="cls-1" />
      <path
         id="path915"
         d="m 41.85,54.06 v 69.73 a 59,59 0 0 0 16,40.45 l 15.91,16.86 a 24.19,24.19 0 0 0 17.61,7.6 v 0 A 24.19,24.19 0 0 0 109,181.1 l 15.87,-16.86 a 59,59 0 0 0 16,-40.45 V 53.3"
         class="cls-1" />
      <path
         id="path917"
         d="m 41.85,68.27 v 0 a 21.2,21.2 0 0 0 21.2,21.2 h 3.08 A 19.87,19.87 0 0 1 86,109.33 v 21.12"
         class="cls-1" />
      <path
         id="path919"
         d="m 96.74,130.45 v -21.12 a 19.87,19.87 0 0 1 19.87,-19.86 h 3.08 a 21.2,21.2 0 0 0 21.2,-21.2 v 0"
         class="cls-1" />
      <path
         id="path921"
         d="m 141,107.46 v 0.22 c 0,10.41 -5.6,20.3 -15.36,27.45"
         class="cls-3" />
      <path
         id="path923"
         d="m 41.85,107.46 v 0.22 c 0,10.41 5.6,20.3 15.37,27.45"
         class="cls-3" />
      <path
         id="path925"
         d="m 117.45,98.45 h 14.24 v 0 A 11.72,11.72 0 0 1 120,110.17 h -14.28 v 0 a 11.72,11.72 0 0 1 11.72,-11.72 z"
         class="cls-1"
         transform="rotate(180,118.705,104.31)" />
      <path
         id="path927"
         d="M 51.05,98.45 H 65.3 A 11.72,11.72 0 0 1 77,110.17 v 0 H 62.77 A 11.72,11.72 0 0 1 51.05,98.45 Z"
         class="cls-1" />
      <path
         id="path929"
         d="m 139.47,75.25 c -12.31,-9.47 -29.84,-14.9 -48.1,-14.9 -18.26,0 -35.8,5.43 -48.11,14.9"
         class="cls-1" />
      <path
         id="path931"
         d="m 140.24,68.11 c -13.64,-9 -31,-14 -48.86,-14 -17.86,0 -35.11,5 -48.74,13.9"
         class="cls-1" />
      <path
         id="path933"
         d="m 72.52,62.86 c 5.29,5.55 12,8.67 19,8.67 7,0 13.61,-3.1 18.9,-8.62"
         class="cls-1" />
      <line
         id="line935"
         y2="188.7"
         x2="116.32"
         y1="173.58"
         x1="116.32"
         class="cls-1" />
      <line
         id="line937"
         y2="188.7"
         x2="124.63"
         y1="164.98"
         x1="124.63"
         class="cls-1" />
      <line
         id="line939"
         y2="154.32001"
         x2="132.95"
         y1="188.7"
         x1="132.95"
         class="cls-1" />
      <line
         id="line941"
         y2="188.7"
         x2="66.5"
         y1="173.58"
         x1="66.5"
         class="cls-1" />
      <line
         id="line943"
         y2="188.7"
         x2="58.18"
         y1="164.98"
         x1="58.18"
         class="cls-1" />
      <line
         id="line945"
         y2="154.32001"
         x2="49.860001"
         y1="188.7"
         x1="49.860001"
         class="cls-1" />
      <path
         id="path947"
         d="m 75.41,49.42 c 0,0.26 0,0.52 0,0.78 a 28.57,28.57 0 0 0 14.51,3.93 c 15.51,0 28.09,-12.24 28.09,-27.34 0,-0.27 0,-0.53 0,-0.79 A 28.57,28.57 0 0 0 103.5,22.07 C 88,22.07 75.41,34.32 75.41,49.42 Z"
         class="cls-1" />
      <path
         id="path949"
         d="m 75.43,50.2 c 0,-0.26 0,-0.52 0,-0.78 A 27.08,27.08 0 0 1 86.89,27.42 28.4,28.4 0 0 0 66.71,19.1 29.35,29.35 0 0 0 62.94,19.35 26.78,26.78 0 0 0 61.87,26.83 27.23,27.23 0 0 0 76.9,51 c -0.5,-0.25 -0.99,-0.52 -1.47,-0.8 z"
         class="cls-1" />
      <path
         id="path951"
         d="m 89.94,1.82 c 0,0 -9.12,7.82 -13.54,18.92 a 28.24,28.24 0 0 1 10.47,6.64 l -0.79,0.6 a 28.45,28.45 0 0 1 17.42,-5.91 h 0.49 C 99.8,10.28 89.94,1.82 89.94,1.82 Z"
         class="cls-1" />
      <path
         id="path953"
         d="m 76.4,20.74 v 0 A 49.83,49.83 0 0 1 84,8.07 39.63,39.63 0 0 0 68.84,2.3 a 36.52,36.52 0 0 0 0.81,16.92 28.44,28.44 0 0 1 6.75,1.52 z"
         class="cls-1" />
      <path
         id="path955"
         d="m 104,22.09 h -0.49 a 29,29 0 0 1 8.49,1.27 c 5.17,-9.31 2.6,-21.06 2.6,-21.06 0,0 -10.13,1.3 -17.44,7.45 A 46.91,46.91 0 0 1 104,22.09 Z"
         class="cls-1" />
      <path
         id="path957"
         d="m 130.67,37.66 a 30.2,30.2 0 0 1 5.38,6.34 28.92,28.92 0 0 1 4,8.74"
         class="cls-1" />
      <path
         id="path959"
         d="m 115.71,8.7 a 59.29,59.29 0 0 1 15.65,-6.93 c 0,0 7.85,19.15 0,34.13 -3.38,6.44 -6.37,9.3 -9.3,10.16"
         class="cls-1" />
      <path
         id="path961"
         d="m 52,37.66 a 30.46,30.46 0 0 0 -5.38,6.34 28.67,28.67 0 0 0 -4,8.74"
         class="cls-1" />
      <path
         id="path963"
         d="M 67,8.7 A 59.16,59.16 0 0 0 51.31,1.77 c 0,0 -7.86,19.15 0,34.13 3.38,6.44 6.36,9.3 9.29,10.16"
         class="cls-1" />
      <line
         id="line965"
         y2="25.120001"
         x2="140.89"
         y1="1.36"
         x1="140.89"
         class="cls-1" />
      <line
         id="line967"
         y2="25.120001"
         x2="41.849998"
         y1="1.36"
         x1="41.849998"
         class="cls-1" />
      <path
         id="path969"
         d="m 112.09,44 a 98.36,98.36 0 0 1 27.67,9.7"
         class="cls-1" />
      <path
         id="path971"
         d="M 42.32,54.06 A 96.68,96.68 0 0 1 68.05,44.54"
         class="cls-1" />
      <path
         id="path973"
         d="m 105.91,49.1 a 96.82,96.82 0 0 1 34.52,11.46"
         class="cls-1" />
      <path
         id="path975"
         d="M 41.9,60.8 A 95.79,95.79 0 0 1 74.34,49.48"
         class="cls-1" />
    </g>
  </g>
</svg>
