<?xml version="1.0" encoding="UTF-8" standalone="no"?>
<svg
   xmlns:osb="http://www.openswatchbook.org/uri/2009/osb"
   xmlns:dc="http://purl.org/dc/elements/1.1/"
   xmlns:cc="http://creativecommons.org/ns#"
   xmlns:rdf="http://www.w3.org/1999/02/22-rdf-syntax-ns#"
   xmlns:svg="http://www.w3.org/2000/svg"
   xmlns="http://www.w3.org/2000/svg"
   xmlns:xlink="http://www.w3.org/1999/xlink"
   xmlns:sodipodi="http://sodipodi.sourceforge.net/DTD/sodipodi-0.dtd"
   xmlns:inkscape="http://www.inkscape.org/namespaces/inkscape"
   inkscape:version="1.0 (4035a4fb49, 2020-05-01)"
   sodipodi:docname="idena_black.svg"
   id="svg8"
   version="1.1"
   viewBox="0 0 23.8125 23.812502"
   height="90"
   width="90">
  <defs
     id="defs2">
    <linearGradient
       id="linearGradient6023"
       inkscape:collect="always">
      <stop
         id="stop6019"
         offset="0"
         style="stop-color:#ffd42a;stop-opacity:1;" />
      <stop
         id="stop6021"
         offset="1"
         style="stop-color:#ffd42a;stop-opacity:0;" />
    </linearGradient>
    <linearGradient
       id="linearGradient5737"
       inkscape:collect="always">
      <stop
         id="stop5733"
         offset="0"
         style="stop-color:#ffffff;stop-opacity:1;" />
      <stop
         id="stop5735"
         offset="1"
         style="stop-color:#ffffff;stop-opacity:0;" />
    </linearGradient>
    <linearGradient
       osb:paint="gradient"
       id="linearGradient5638"
       inkscape:collect="always">
      <stop
         id="stop5634"
         offset="0"
         style="stop-color:#ffffff;stop-opacity:1;" />
      <stop
         id="stop5636"
         offset="1"
         style="stop-color:#ffffff;stop-opacity:0;" />
    </linearGradient>
    <linearGradient
       id="linearGradient5615-6"
       inkscape:collect="always">
      <stop
         id="stop5611"
         offset="0"
         style="stop-color:#ffffff;stop-opacity:1;" />
      <stop
         id="stop5613"
         offset="1"
         style="stop-color:#ffffff;stop-opacity:0;" />
    </linearGradient>
    <style
       id="style803">.cls-1,.cls-2,.cls-3{fill:none;stroke:#000;stroke-linecap:round;stroke-linejoin:round;}.cls-1{stroke-width:2.71px;}.cls-2{stroke-width:2.71px;}.cls-3{stroke-width:2.42px;}</style>
    <filter
       height="1.5013735"
       y="-0.25068677"
       width="1.3963239"
       x="-0.19816193"
       id="filter5607"
       style="color-interpolation-filters:sRGB"
       inkscape:collect="always">
      <feGaussianBlur
         id="feGaussianBlur5609"
         stdDeviation="0.5792789"
         inkscape:collect="always" />
    </filter>
    <radialGradient
       gradientUnits="userSpaceOnUse"
       gradientTransform="matrix(1,0,0,0.8499461,0,0.75697872)"
       r="4.898182"
       fy="5.0447121"
       fx="11.525999"
       cy="5.0447121"
       cx="11.525999"
       id="radialGradient5617"
       xlink:href="#linearGradient5615-6"
       inkscape:collect="always" />
    <linearGradient
       gradientTransform="matrix(0.99952014,0,0,1.1179478,-0.32823546,-3.1047702)"
       gradientUnits="userSpaceOnUse"
       y2="12.160763"
       x2="28.061958"
       y1="12.160763"
       x1="-3.6736128"
       id="linearGradient5741"
       xlink:href="#linearGradient5737"
       inkscape:collect="always" />
    <radialGradient
       gradientUnits="userSpaceOnUse"
       gradientTransform="matrix(0.99952014,0,0,1.0026128,-0.32823546,-1.7022083)"
       r="15.867786"
       fy="12.160763"
       fx="12.194173"
       cy="12.160763"
       cx="12.194173"
       id="radialGradient6025"
       xlink:href="#linearGradient6023"
       inkscape:collect="always" />
  </defs>
  <sodipodi:namedview
     inkscape:window-maximized="1"
     inkscape:window-y="-8"
     inkscape:window-x="-8"
     inkscape:window-height="705"
     inkscape:window-width="1366"
     units="px"
     showgrid="false"
     inkscape:document-rotation="0"
     inkscape:current-layer="layer6"
     inkscape:document-units="mm"
     inkscape:cy="34.775787"
     inkscape:cx="45.393631"
     inkscape:zoom="3.959798"
     inkscape:pageshadow="2"
     inkscape:pageopacity="0.0"
     borderopacity="1.0"
     bordercolor="#666666"
     pagecolor="#ffffff"
     id="base" />
  <metadata
     id="metadata5">
    <rdf:RDF>
      <cc:Work
         rdf:about="">
        <dc:format>image/svg+xml</dc:format>
        <dc:type
           rdf:resource="http://purl.org/dc/dcmitype/StillImage" />
        <dc:title></dc:title>
      </cc:Work>
    </rdf:RDF>
  </metadata>
  <g
     style="display:inline;opacity:1;mix-blend-mode:normal"
     inkscape:label="Layer 2"
     id="layer3"
     inkscape:groupmode="layer">
    <ellipse
       ry="5.9801555"
       rx="6.7485552"
       cy="8.6528511"
       cx="11.292137"
       id="path4742"
       style="mix-blend-mode:normal;fill:none;fill-opacity:1;stroke:#ffffff;stroke-width:1.977;stroke-linecap:round;stroke-linejoin:miter;stroke-miterlimit:4;stroke-dasharray:none;stroke-opacity:0;paint-order:normal" />
    <rect
       y="0"
       x="0.06681738"
       height="23.98744"
       width="23.853804"
       id="rect4874"
       style="fill:#0000ff;fill-opacity:0;fill-rule:evenodd;stroke-width:0.264583" />
  </g>
  <g
     style="display:inline;opacity:1;mix-blend-mode:normal"
     inkscape:label="Layer 3"
     id="layer6"
     inkscape:groupmode="layer">
    <rect
       y="-5.2710223"
       x="-3.8678575"
       height="31.522701"
       width="31.455887"
       id="rect5692"
       style="display:inline;opacity:1;fill:url(#radialGradient6025);fill-opacity:1;fill-rule:evenodd;stroke:url(#linearGradient5741);stroke-width:0.28;stroke-miterlimit:4;stroke-dasharray:none" />
  </g>
  <g
     sodipodi:insensitive="true"
     style="display:inline;opacity:1"
     id="layer1"
     inkscape:groupmode="layer"
     inkscape:label="Layer 1">
    <g
       transform="matrix(0.13036116,0,0,0.12408395,-0.02008254,0.13755551)"
       id="g1067">
      <path
         class="cls-1"
         d="M 12.51,1.36 V 15.8 a 7.89,7.89 0 0 0 1.84,5.2 l 5,5.82"
         id="path809" />
      <path
         class="cls-1"
         d="M 27.13,17.55 23.32,13.3 A 4.62,4.62 0 0 1 22.18,10.21 V 1.36"
         id="path811" />
      <path
         class="cls-1"
         d="m 13.39,165 8.07,-9.34 -15.22,-17.57 -2.64,3.06 a 9.9,9.9 0 0 0 0,12.55 z"
         id="path813" />
      <path
         class="cls-1"
         d="m 21.46,155.7 -8.07,-9.33 15.22,-17.61 2.64,3.05 a 9.89,9.89 0 0 1 0,12.56 z"
         id="path815" />
      <path
         class="cls-1"
         d="M 13.39,146.37 21.46,137 6.24,119.42 3.6,122.48 a 9.9,9.9 0 0 0 0,12.52 z"
         id="path817" />
      <path
         class="cls-1"
         d="m 21.46,137 -8.07,-9.33 15.22,-17.61 2.64,3.06 a 9.88,9.88 0 0 1 0,12.55 z"
         id="path819" />
      <path
         class="cls-1"
         d="m 13.39,127.7 8.07,-9.33 -15.22,-17.62 -2.64,3.06 a 9.91,9.91 0 0 0 0,12.56 z"
         id="path821" />
      <path
         class="cls-1"
         d="M 21.46,118.37 13.39,109 28.61,91.42 l 2.64,3.06 a 9.88,9.88 0 0 1 0,12.55 z"
         id="path823" />
      <path
         class="cls-1"
         d="m 13.39,109 8.07,-9.33 -15.22,-17.58 -2.64,3 a 9.91,9.91 0 0 0 0,12.56 z"
         id="path825" />
      <path
         class="cls-1"
         d="m 21.46,99.7 -8.07,-9.34 15.22,-17.61 2.64,3.06 a 9.88,9.88 0 0 1 0,12.55 z"
         id="path827" />
      <path
         class="cls-1"
         d="M 13.39,90.36 21.46,81 6.24,63.42 3.6,66.48 A 9.9,9.9 0 0 0 3.6,79 Z"
         id="path829" />
      <path
         class="cls-1"
         d="m 21.46,81 -8.07,-9.3 15.22,-17.62 2.64,3.06 a 9.89,9.89 0 0 1 0,12.56 z"
         id="path831" />
      <path
         class="cls-1"
         d="M 13.39,71.7 21.46,62.36 6.24,44.75 3.6,47.81 a 9.9,9.9 0 0 0 0,12.55 z"
         id="path833" />
      <path
         class="cls-1"
         d="M 21.46,62.36 13.39,53 28.61,35.42 l 2.64,3 a 9.89,9.89 0 0 1 0,12.56 z"
         id="path835" />
      <path
         class="cls-1"
         d="M 13.39,53 21.46,43.66 6.24,26.08 3.6,29.14 a 9.9,9.9 0 0 0 0,12.55 z"
         id="path837" />
      <path
         class="cls-1"
         d="M 21.46,25 13.39,34.33 6.13,26 A 14.08,14.08 0 0 1 2.84,16.73 V 1.36"
         id="path839" />
      <path
         class="cls-1"
         d="m 21.46,43.69 -8.07,-9.33 15.22,-17.61 2.64,3.06 a 9.88,9.88 0 0 1 0,12.55 z"
         id="path841" />
      <path
         class="cls-1"
         d="M 28.72,16.62 A 14.07,14.07 0 0 0 32,7.41 v -6"
         id="path843" />
      <path
         class="cls-1"
         d="m 22.34,188.7 v -14.44 a 7.89,7.89 0 0 0 -1.84,-5.15 l -5,-5.82"
         id="path845" />
      <path
         class="cls-1"
         d="m 7.73,172.51 3.81,4.25 a 4.66,4.66 0 0 1 1.13,3.09 v 8.85"
         id="path847" />
      <path
         class="cls-1"
         d="m 13.39,165 8.07,-9.34 7.26,8.41 a 14.14,14.14 0 0 1 3.3,9.27 v 15.36"
         id="path849" />
      <path
         class="cls-1"
         d="m 2.84,188.7 v -6 a 14.05,14.05 0 0 1 3.29,-9.2 l 7.26,-8.5"
         id="path851" />
      <path
         class="cls-1"
         d="m 13.51,164.9 15.21,-17.61 0.12,0.13 A 14.55,14.55 0 0 1 29.47,165"
         id="path853" />
      <path
         class="cls-1"
         d="m 13,164.62 -6.77,-7.83 -0.11,0.13 a 14.57,14.57 0 0 0 -0.84,17.32"
         id="path855" />
      <path
         class="cls-1"
         d="M 160.23,1.36 V 15.8 a 7.9,7.9 0 0 0 1.85,5.2 l 5,5.82"
         id="path857" />
      <path
         class="cls-1"
         d="M 174.85,17.55 171,13.3 a 4.62,4.62 0 0 1 -1.14,-3.09 V 1.36"
         id="path859" />
      <path
         class="cls-1"
         d="m 161.12,165 8.06,-9.34 -15.18,-17.57 -2.64,3.06 a 9.88,9.88 0 0 0 0,12.55 z"
         id="path861" />
      <path
         class="cls-1"
         d="m 169.18,155.7 -8.06,-9.33 15.21,-17.61 2.64,3.05 a 9.89,9.89 0 0 1 0,12.56 z"
         id="path863" />
      <path
         class="cls-1"
         d="m 161.12,146.37 8.06,-9.34 -15.18,-17.61 -2.64,3.06 a 9.88,9.88 0 0 0 0,12.55 z"
         id="path865" />
      <path
         class="cls-1"
         d="m 169.18,137 -8.06,-9.33 15.21,-17.61 2.64,3.06 a 9.88,9.88 0 0 1 0,12.55 z"
         id="path867" />
      <path
         class="cls-1"
         d="m 161.12,127.7 8.06,-9.33 -15.18,-17.62 -2.64,3.06 a 9.89,9.89 0 0 0 0,12.56 z"
         id="path869" />
      <path
         class="cls-1"
         d="M 169.18,118.37 161.12,109 176.33,91.39 179,94.48 a 9.88,9.88 0 0 1 0,12.52 z"
         id="path871" />
      <path
         class="cls-1"
         d="m 161.12,109 8.06,-9.33 -15.18,-17.58 -2.64,3 a 9.89,9.89 0 0 0 0,12.56 z"
         id="path873" />
      <path
         class="cls-1"
         d="m 169.18,99.7 -8.06,-9.34 15.21,-17.61 2.67,3.06 a 9.88,9.88 0 0 1 0,12.55 z"
         id="path875" />
      <path
         class="cls-1"
         d="M 161.12,90.36 169.18,81 154,63.42 l -2.64,3.06 a 9.88,9.88 0 0 0 0,12.55 z"
         id="path877" />
      <path
         class="cls-1"
         d="m 169.18,81 -8.06,-9.33 15.21,-17.62 2.67,3.09 a 9.89,9.89 0 0 1 0,12.56 z"
         id="path879" />
      <path
         class="cls-1"
         d="m 161.12,71.7 8.06,-9.34 -15.18,-17.61 -2.64,3.06 a 9.88,9.88 0 0 0 0,12.55 z"
         id="path881" />
      <path
         class="cls-1"
         d="m 169.18,62.36 -8.06,-9.36 15.21,-17.61 2.64,3 A 9.89,9.89 0 0 1 179,51 Z"
         id="path883" />
      <path
         class="cls-1"
         d="m 161.12,53 8.06,-9.34 -15.18,-17.58 -2.64,3.06 a 9.88,9.88 0 0 0 0,12.55 z"
         id="path885" />
      <path
         class="cls-1"
         d="m 169.18,25 -8.06,9.33 -7.27,-8.33 a 14.08,14.08 0 0 1 -3.29,-9.27 V 1.36"
         id="path887" />
      <path
         class="cls-1"
         d="m 169.18,43.69 -8.06,-9.33 15.21,-17.61 2.67,3.06 a 9.88,9.88 0 0 1 0,12.55 z"
         id="path889" />
      <path
         class="cls-1"
         d="m 176.45,16.62 a 14.11,14.11 0 0 0 3.29,-9.21 v -6"
         id="path891" />
      <path
         class="cls-1"
         d="m 170.07,188.7 v -14.44 a 7.9,7.9 0 0 0 -1.85,-5.15 l -5,-5.82"
         id="path893" />
      <path
         class="cls-1"
         d="m 155.45,172.51 3.81,4.25 a 4.62,4.62 0 0 1 1.14,3.09 v 8.85"
         id="path895" />
      <path
         class="cls-1"
         d="m 161.12,165 8.06,-9.34 7.27,8.41 a 14.13,14.13 0 0 1 3.29,9.27 v 15.36"
         id="path897" />
      <path
         class="cls-1"
         d="m 150.56,188.7 v -6 a 14.1,14.1 0 0 1 3.29,-9.2 l 7.27,-8.41"
         id="path899" />
      <path
         class="cls-1"
         d="m 161.23,164.9 15.22,-17.61 0.11,0.13 A 14.56,14.56 0 0 1 177.2,165"
         id="path901" />
      <path
         class="cls-1"
         d="m 160.73,164.62 -6.73,-7.83 -0.12,0.13 a 14.57,14.57 0 0 0 -0.84,17.32"
         id="path903" />
      <polyline
         class="cls-1"
         points="41.85 188.71 41.85 25.12 47.07 25.12"
         id="polyline905" />
      <polyline
         class="cls-2"
         points="135.05 25.12 140.89 25.12 140.89 188.71"
         id="polyline907" />
      <polyline
         class="cls-1"
         points="83.67 169.92 90.67 169.92 97.66 169.92"
         id="polyline909" />
      <polyline
         class="cls-1"
         points="86.52 154.08 94.25 154.08 96.23 154.08"
         id="polyline911" />
      <path
         class="cls-1"
         d="m 96.88,146.94 c -1.52,-0.63 -3.2,0.22 -3.93,0.64 a 3.93,3.93 0 0 1 -1.58,0.41 3.85,3.85 0 0 1 -1.57,-0.41 c -0.74,-0.42 -2.42,-1.27 -3.94,-0.64 a 120.32,120.32 0 0 0 -11.71,5.62 19.94,19.94 0 0 0 34.44,0 120.32,120.32 0 0 0 -11.71,-5.62 z"
         id="path913" />
      <path
         class="cls-1"
         d="m 41.85,54.06 v 69.73 a 59,59 0 0 0 16,40.45 l 15.91,16.86 a 24.19,24.19 0 0 0 17.61,7.6 v 0 A 24.19,24.19 0 0 0 109,181.1 l 15.87,-16.86 a 59,59 0 0 0 16,-40.45 V 53.3"
         id="path915" />
      <path
         class="cls-1"
         d="m 41.85,68.27 v 0 a 21.2,21.2 0 0 0 21.2,21.2 h 3.08 A 19.87,19.87 0 0 1 86,109.33 v 21.12"
         id="path917" />
      <path
         class="cls-1"
         d="m 96.74,130.45 v -21.12 a 19.87,19.87 0 0 1 19.87,-19.86 h 3.08 a 21.2,21.2 0 0 0 21.2,-21.2 v 0"
         id="path919" />
      <path
         class="cls-3"
         d="m 141,107.46 v 0.22 c 0,10.41 -5.6,20.3 -15.36,27.45"
         id="path921" />
      <path
         class="cls-3"
         d="m 41.85,107.46 v 0.22 c 0,10.41 5.6,20.3 15.37,27.45"
         id="path923" />
      <path
         transform="rotate(180,118.705,104.31)"
         class="cls-1"
         d="m 117.45,98.45 h 14.24 v 0 A 11.72,11.72 0 0 1 120,110.17 h -14.28 v 0 a 11.72,11.72 0 0 1 11.72,-11.72 z"
         id="path925" />
      <path
         class="cls-1"
         d="M 51.05,98.45 H 65.3 A 11.72,11.72 0 0 1 77,110.17 v 0 H 62.77 A 11.72,11.72 0 0 1 51.05,98.45 Z"
         id="path927" />
      <path
         class="cls-1"
         d="m 139.47,75.25 c -12.31,-9.47 -29.84,-14.9 -48.1,-14.9 -18.26,0 -35.8,5.43 -48.11,14.9"
         id="path929" />
      <path
         class="cls-1"
         d="m 140.24,68.11 c -13.64,-9 -31,-14 -48.86,-14 -17.86,0 -35.11,5 -48.74,13.9"
         id="path931" />
      <path
         class="cls-1"
         d="m 72.52,62.86 c 5.29,5.55 12,8.67 19,8.67 7,0 13.61,-3.1 18.9,-8.62"
         id="path933" />
      <line
         class="cls-1"
         x1="116.32"
         y1="173.58"
         x2="116.32"
         y2="188.7"
         id="line935" />
      <line
         class="cls-1"
         x1="124.63"
         y1="164.98"
         x2="124.63"
         y2="188.7"
         id="line937" />
      <line
         class="cls-1"
         x1="132.95"
         y1="188.7"
         x2="132.95"
         y2="154.32001"
         id="line939" />
      <line
         class="cls-1"
         x1="66.5"
         y1="173.58"
         x2="66.5"
         y2="188.7"
         id="line941" />
      <line
         class="cls-1"
         x1="58.18"
         y1="164.98"
         x2="58.18"
         y2="188.7"
         id="line943" />
      <line
         class="cls-1"
         x1="49.860001"
         y1="188.7"
         x2="49.860001"
         y2="154.32001"
         id="line945" />
      <path
         class="cls-1"
         d="m 75.41,49.42 c 0,0.26 0,0.52 0,0.78 a 28.57,28.57 0 0 0 14.51,3.93 c 15.51,0 28.09,-12.24 28.09,-27.34 0,-0.27 0,-0.53 0,-0.79 A 28.57,28.57 0 0 0 103.5,22.07 C 88,22.07 75.41,34.32 75.41,49.42 Z"
         id="path947" />
      <path
         class="cls-1"
         d="m 75.43,50.2 c 0,-0.26 0,-0.52 0,-0.78 A 27.08,27.08 0 0 1 86.89,27.42 28.4,28.4 0 0 0 66.71,19.1 29.35,29.35 0 0 0 62.94,19.35 26.78,26.78 0 0 0 61.87,26.83 27.23,27.23 0 0 0 76.9,51 c -0.5,-0.25 -0.99,-0.52 -1.47,-0.8 z"
         id="path949" />
      <path
         class="cls-1"
         d="m 89.94,1.82 c 0,0 -9.12,7.82 -13.54,18.92 a 28.24,28.24 0 0 1 10.47,6.64 l -0.79,0.6 a 28.45,28.45 0 0 1 17.42,-5.91 h 0.49 C 99.8,10.28 89.94,1.82 89.94,1.82 Z"
         id="path951" />
      <path
         class="cls-1"
         d="m 76.4,20.74 v 0 A 49.83,49.83 0 0 1 84,8.07 39.63,39.63 0 0 0 68.84,2.3 a 36.52,36.52 0 0 0 0.81,16.92 28.44,28.44 0 0 1 6.75,1.52 z"
         id="path953" />
      <path
         class="cls-1"
         d="m 104,22.09 h -0.49 a 29,29 0 0 1 8.49,1.27 c 5.17,-9.31 2.6,-21.06 2.6,-21.06 0,0 -10.13,1.3 -17.44,7.45 A 46.91,46.91 0 0 1 104,22.09 Z"
         id="path955" />
      <path
         class="cls-1"
         d="m 130.67,37.66 a 30.2,30.2 0 0 1 5.38,6.34 28.92,28.92 0 0 1 4,8.74"
         id="path957" />
      <path
         class="cls-1"
         d="m 115.71,8.7 a 59.29,59.29 0 0 1 15.65,-6.93 c 0,0 7.85,19.15 0,34.13 -3.38,6.44 -6.37,9.3 -9.3,10.16"
         id="path959" />
      <path
         class="cls-1"
         d="m 52,37.66 a 30.46,30.46 0 0 0 -5.38,6.34 28.67,28.67 0 0 0 -4,8.74"
         id="path961" />
      <path
         class="cls-1"
         d="M 67,8.7 A 59.16,59.16 0 0 0 51.31,1.77 c 0,0 -7.86,19.15 0,34.13 3.38,6.44 6.36,9.3 9.29,10.16"
         id="path963" />
      <line
         class="cls-1"
         x1="140.89"
         y1="1.36"
         x2="140.89"
         y2="25.120001"
         id="line965" />
      <line
         class="cls-1"
         x1="41.849998"
         y1="1.36"
         x2="41.849998"
         y2="25.120001"
         id="line967" />
      <path
         class="cls-1"
         d="m 112.09,44 a 98.36,98.36 0 0 1 27.67,9.7"
         id="path969" />
      <path
         class="cls-1"
         d="M 42.32,54.06 A 96.68,96.68 0 0 1 68.05,44.54"
         id="path971" />
      <path
         class="cls-1"
         d="m 105.91,49.1 a 96.82,96.82 0 0 1 34.52,11.46"
         id="path973" />
      <path
         class="cls-1"
         d="M 41.9,60.8 A 95.79,95.79 0 0 1 74.34,49.48"
         id="path975" />
    </g>
  </g>
</svg>
